<svg xmlns="http://www.w3.org/2000/svg" version="1.1" xmlns:xlink="http://www.w3.org/1999/xlink" xmlns:svgjs="http://svgjs.dev/svgjs" viewBox="0.53 0.62 5.85 4.42"><g transform="matrix(1,0,0,1,3.460060834078763,4.566599321566311)"><g transform="matrix(1,0,0,1,0,-1.441194540149234)"><g transform="matrix(-0.01578675991020047,-0.9998753813408637,0.9998753813408637,-0.01578675991020047,0,0)"><g transform="matrix(1,0,0,1,0,1.441194540149234)"><path d="M413 0L273 260L252 260L252 0L56 0L56 705L365 705Q450 705 509 675.5Q568 646 598 594.5Q628 543 628 479Q628 407 588.5 352.5Q549 298 473 275L632 0ZM252 394L349 394Q389 394 409 413Q429 432 429 468Q429 502 408.5 521.5Q388 541 349 541L252 541Z" fill="#343432" transform="matrix(0.001,0,0,-0.001,-0.3305,-3.2141863619013815)" fill-rule="nonzero"/></g></g></g><g transform="matrix(1,0,0,1,0,-1.441194540149234)"><g transform="matrix(0.32480154359991714,-0.9457821933590794,0.9457821933590794,0.32480154359991714,0,0)"><g transform="matrix(1,0,0,1,0,1.441194540149234)"><path d="M252 548L252 433L477 433L477 284L252 284L252 157L507 157L507 0L56 0L56 705L507 705L507 548Z" fill="#343432" transform="matrix(0.001,0,0,-0.001,-0.274,-3.2141863619013815)" fill-rule="nonzero"/></g></g></g><g transform="matrix(1,0,0,1,0,-1.441194540149234)"><g transform="matrix(0.617711127979847,-0.7864050879603114,0.7864050879603114,0.617711127979847,0,0)"><g transform="matrix(1,0,0,1,0,1.441194540149234)"><path d="M322 -7Q199 -7 120 51.5Q41 110 35 219L244 219Q247 182 266 165Q285 148 315 148Q342 148 359.5 161.5Q377 175 377 199Q377 230 348 247Q319 264 254 285Q185 308 142.5 329.5Q100 351 68.5 392.5Q37 434 37 501Q37 569 71 617.5Q105 666 165 691Q225 716 301 716Q424 716 497.5 658.5Q571 601 576 497L363 497Q362 529 343.5 545Q325 561 296 561Q274 561 260 548Q246 535 246 511Q246 491 261.5 476.5Q277 462 300 451.5Q323 441 368 425Q435 402 478.5 379.5Q522 357 553.5 316.5Q585 276 585 214Q585 151 553.5 101Q522 51 462.5 22Q403 -7 322 -7Z" fill="#343432" transform="matrix(0.001,0,0,-0.001,-0.31,-3.2141863619013815)" fill-rule="nonzero"/></g></g></g><g transform="matrix(1,0,0,1,0,-1.441194540149234)"><g transform="matrix(0.8763618040091966,-0.48165339038954813,0.48165339038954813,0.8763618040091966,0,0)"><g transform="matrix(1,0,0,1,0,1.441194540149234)"><path d="M394 -7Q295 -7 212 39.5Q129 86 80.5 168.5Q32 251 32 355Q32 459 80.5 541.5Q129 624 212 670Q295 716 394 716Q494 716 576.5 670Q659 624 707 541.5Q755 459 755 355Q755 251 707 168.5Q659 86 576 39.5Q493 -7 394 -7ZM394 175Q469 175 512.5 224Q556 273 556 355Q556 439 512.5 487.5Q469 536 394 536Q318 536 275 487.5Q232 439 232 355Q232 272 275 223.5Q318 175 394 175Z" fill="#343432" transform="matrix(0.001,0,0,-0.001,-0.3935,-3.2141863619013815)" fill-rule="nonzero"/></g></g></g><g transform="matrix(1,0,0,1,0,-1.441194540149234)"><g transform="matrix(0.998246893891753,-0.059187319887515924,0.059187319887515924,0.998246893891753,0,0)"><g transform="matrix(1,0,0,1,0,1.441194540149234)"><path d="M709 0L513 0L252 394L252 0L56 0L56 705L252 705L513 306L513 705L709 705Z" fill="#343432" transform="matrix(0.001,0,0,-0.001,-0.3825,-3.2141863619013815)" fill-rule="nonzero"/></g></g></g><g transform="matrix(1,0,0,1,0,-1.441194540149234)"><g transform="matrix(0.9304811628673904,0.3663397406082898,-0.3663397406082898,0.9304811628673904,0,0)"><g transform="matrix(1,0,0,1,0,1.441194540149234)"><path d="M502 115L252 115L214 0L8 0L265 705L491 705L747 0L540 0ZM453 265L377 493L302 265Z" fill="#343432" transform="matrix(0.001,0,0,-0.001,-0.3775,-3.2141863619013815)" fill-rule="nonzero"/></g></g></g><g transform="matrix(1,0,0,1,0,-1.441194540149234)"><g transform="matrix(0.6899572061420307,0.723850159696524,-0.723850159696524,0.6899572061420307,0,0)"><g transform="matrix(1,0,0,1,0,1.441194540149234)"><path d="M709 0L513 0L252 394L252 0L56 0L56 705L252 705L513 306L513 705L709 705Z" fill="#343432" transform="matrix(0.001,0,0,-0.001,-0.3825,-3.2141863619013815)" fill-rule="nonzero"/></g></g></g><g transform="matrix(1,0,0,1,0,-1.441194540149234)"><g transform="matrix(0.32053074326157033,0.9472381129495293,-0.9472381129495293,0.32053074326157033,0,0)"><g transform="matrix(1,0,0,1,0,1.441194540149234)"><path d="M32 354Q32 458 75.5 539.5Q119 621 199 666.5Q279 712 383 712Q515 712 605 641.5Q695 571 721 450L510 450Q491 490 457.5 511Q424 532 380 532Q312 532 271.5 483.5Q231 435 231 354Q231 272 271.5 223.5Q312 175 380 175Q424 175 457.5 196Q491 217 510 257L721 257Q695 136 605 65.5Q515 -5 383 -5Q279 -5 199 40.5Q119 86 75.5 167.5Q32 249 32 354Z" fill="#343432" transform="matrix(0.001,0,0,-0.001,-0.379,-3.2141863619013815)" fill-rule="nonzero"/></g></g></g><g transform="matrix(1,0,0,1,0,-1.441194540149234)"><g transform="matrix(-0.04763642023969603,0.9988647413272466,-0.9988647413272466,-0.04763642023969603,0,0)"><g transform="matrix(1,0,0,1,0,1.441194540149234)"><path d="M252 548L252 433L477 433L477 284L252 284L252 157L507 157L507 0L56 0L56 705L507 705L507 548Z" fill="#343432" transform="matrix(0.001,0,0,-0.001,-0.274,-3.2141863619013815)" fill-rule="nonzero"/></g></g></g><path d="M562 -120L472 1Q432 -7 394 -7Q295 -7 212.5 39Q130 85 81.5 167.5Q33 250 33 353Q33 456 81.5 538Q130 620 212.5 666Q295 712 394 712Q493 712 575.5 666Q658 620 705.5 538Q753 456 753 353Q753 263 716.5 188.5Q680 114 615 65L769 -120ZM208 353Q208 260 258.5 204.5Q309 149 394 149Q478 149 528.5 205Q579 261 579 353Q579 446 528.5 501.5Q478 557 394 557Q309 557 258.5 502Q208 447 208 353Z" fill="#343432" transform="matrix(0.0005,0,0,-0.0005,-2.94075,0.4005)" fill-rule="nonzero"/><path d="M230 702L230 282Q230 219 261 185Q292 151 352 151Q412 151 444 185Q476 219 476 282L476 702L647 702L647 283Q647 189 607 124Q567 59 499.5 26Q432 -7 349 -7Q266 -7 200.5 25.5Q135 58 97 123.5Q59 189 59 283L59 702Z" fill="#343432" transform="matrix(0.0005,0,0,-0.0005,-2.54175,0.4005)" fill-rule="nonzero"/><path d="M499 124L237 124L195 0L16 0L270 702L468 702L722 0L541 0ZM455 256L368 513L282 256Z" fill="#343432" transform="matrix(0.0005,0,0,-0.0005,-2.18425,0.4005)" fill-rule="nonzero"/><path d="M233 132L457 132L457 0L62 0L62 702L233 702Z" fill="#343432" transform="matrix(0.0005,0,0,-0.0005,-1.81075,0.4005)" fill-rule="nonzero"/><path d="M233 702L233 0L62 0L62 702Z" fill="#343432" transform="matrix(0.0005,0,0,-0.0005,-1.56725,0.4005)" fill-rule="nonzero"/><path d="M567 702L567 565L381 565L381 0L210 0L210 565L24 565L24 702Z" fill="#343432" transform="matrix(0.0005,0,0,-0.0005,-1.41475,0.4005)" fill-rule="nonzero"/><path d="M664 702L421 232L421 0L250 0L250 232L7 702L201 702L337 408L472 702Z" fill="#343432" transform="matrix(0.0005,0,0,-0.0005,-1.11425,0.4005)" fill-rule="nonzero"/><path d="M0 0 " fill="#343432" transform="matrix(0.0005,0,0,-0.0005,-0.7737499999999999,0.4005)" fill-rule="nonzero"/><path d="M33 352Q33 456 78 537.5Q123 619 203.5 664.5Q284 710 386 710Q511 710 600 644Q689 578 719 464L531 464Q510 508 471.5 531Q433 554 384 554Q305 554 256 499Q207 444 207 352Q207 260 256 205Q305 150 384 150Q433 150 471.5 173Q510 196 531 240L719 240Q689 126 600 60.5Q511 -5 386 -5Q284 -5 203.5 40.5Q123 86 78 167Q33 248 33 352Z" fill="#343432" transform="matrix(0.0005,0,0,-0.0005,-0.66275,0.4005)" fill-rule="nonzero"/><path d="M325 702Q436 702 519 658Q602 614 647.5 534.5Q693 455 693 351Q693 248 647.5 168Q602 88 518.5 44Q435 0 325 0L62 0L62 702L325 702ZM314 148Q411 148 465 201Q519 254 519 351Q519 448 465 502Q411 556 314 556L233 556L233 148L314 148Z" fill="#343432" transform="matrix(0.0005,0,0,-0.0005,-0.27674999999999994,0.4005)" fill-rule="nonzero"/><path d="M181 800L168 579L53 579L40 800Z" fill="#343432" transform="matrix(0.0005,0,0,-0.0005,0.09175000000000005,0.4005)" fill-rule="nonzero"/><path d="M316 -7Q239 -7 178 18Q117 43 80.5 92Q44 141 42 210L224 210Q228 171 251 150.5Q274 130 311 130Q349 130 371 147.5Q393 165 393 196Q393 222 375.5 239Q358 256 332.5 267Q307 278 260 292Q192 313 149 334Q106 355 75 396Q44 437 44 503Q44 601 115 656.5Q186 712 300 712Q416 712 487 656.5Q558 601 563 502L378 502Q376 536 353 555.5Q330 575 294 575Q263 575 244 558.5Q225 542 225 511Q225 477 257 458Q289 439 357 417Q425 394 467.5 373Q510 352 541 312Q572 272 572 209Q572 149 541.5 100Q511 51 453 22Q395 -7 316 -7Z" fill="#343432" transform="matrix(0.0005,0,0,-0.0005,0.20725000000000005,0.4005)" fill-rule="nonzero"/><path d="M0 0 " fill="#343432" transform="matrix(0.0005,0,0,-0.0005,0.51975,0.4005)" fill-rule="nonzero"/><path d="M599 0L534 63Q437 -11 302 -11Q221 -11 161 15.5Q101 42 68.5 90.5Q36 139 36 204Q36 270 71.5 323.5Q107 377 178 411Q152 443 141 472.5Q130 502 130 537Q130 587 156 628Q182 669 231.5 692.5Q281 716 349 716Q418 716 466 691Q514 666 538 624Q562 582 560 532L399 532Q400 559 385.5 573.5Q371 588 347 588Q323 588 307 574Q291 560 291 538Q291 517 304.5 494Q318 471 347 441L518 274Q520 279 523.5 286Q527 293 531 302L568 365L739 365L691 278Q664 219 629 166L798 0ZM310 127Q377 127 429 165L273 316Q201 279 201 216Q201 178 230.5 152.5Q260 127 310 127Z" fill="#343432" transform="matrix(0.0005,0,0,-0.0005,0.63075,0.4005)" fill-rule="nonzero"/><path d="M0 0 " fill="#343432" transform="matrix(0.0005,0,0,-0.0005,1.03475,0.4005)" fill-rule="nonzero"/><path d="M721 702L472 0L258 0L9 702L191 702L365 172L540 702Z" fill="#343432" transform="matrix(0.0005,0,0,-0.0005,1.14575,0.4005)" fill-rule="nonzero"/><path d="M233 702L233 0L62 0L62 702Z" fill="#343432" transform="matrix(0.0005,0,0,-0.0005,1.5157500000000002,0.4005)" fill-rule="nonzero"/><path d="M690 0L519 0L233 433L233 0L62 0L62 702L233 702L519 267L519 702L690 702Z" fill="#343432" transform="matrix(0.0005,0,0,-0.0005,1.6682500000000002,0.4005)" fill-rule="nonzero"/><path d="M664 702L421 232L421 0L250 0L250 232L7 702L201 702L337 408L472 702Z" fill="#343432" transform="matrix(0.0005,0,0,-0.0005,2.0492500000000002,0.4005)" fill-rule="nonzero"/><path d="M233 132L457 132L457 0L62 0L62 702L233 702Z" fill="#343432" transform="matrix(0.0005,0,0,-0.0005,2.3897500000000003,0.4005)" fill-rule="nonzero"/><path d="M316 -7Q239 -7 178 18Q117 43 80.5 92Q44 141 42 210L224 210Q228 171 251 150.5Q274 130 311 130Q349 130 371 147.5Q393 165 393 196Q393 222 375.5 239Q358 256 332.5 267Q307 278 260 292Q192 313 149 334Q106 355 75 396Q44 437 44 503Q44 601 115 656.5Q186 712 300 712Q416 712 487 656.5Q558 601 563 502L378 502Q376 536 353 555.5Q330 575 294 575Q263 575 244 558.5Q225 542 225 511Q225 477 257 458Q289 439 357 417Q425 394 467.5 373Q510 352 541 312Q572 272 572 209Q572 149 541.5 100Q511 51 453 22Q395 -7 316 -7Z" fill="#343432" transform="matrix(0.0005,0,0,-0.0005,2.6332500000000003,0.4005)" fill-rule="nonzero"/><g clip-path="url(&quot;#SvgjsClipPath1019&quot;)"><path d=" M -1.253694540149234 -1.441194540149234 C -1.253694540149234 -2.133590915619785 -0.6923963754705516 -2.6948890802984677 -2.220446049250313e-16 -2.694889080298468 C 0.6923963754705511 -2.694889080298468 1.253694540149234 -2.1335909156197856 1.253694540149234 -1.4411945401492343 C 1.253694540149234 -0.748798164678683 0.6923963754705513 -0.1875 0 -0.1875 C -0.6923963754705511 -0.1875 -1.2536945401492339 -0.7487981646786828 -1.253694540149234 -1.4411945401492339 Z M -1.2035467585432646 -1.441194540149234 C -1.2035467585432644 -0.7764940196975048 -0.664700520451729 -0.23764778160596922 0 -0.23764778160596922 C 0.6647005204517293 -0.23764778160596922 1.2035467585432649 -0.7764940196975048 1.2035467585432649 -1.441194540149234 C 1.2035467585432649 -2.105895060600963 0.6647005204517298 -2.644741298692499 2.220446049250313e-16 -2.644741298692499 C -0.6647005204517288 -2.644741298692499 -1.2035467585432642 -2.105895060600963 -1.2035467585432644 -1.4411945401492343 Z" fill="#343432" transform="matrix(1,0,0,1,0,0)" fill-rule="nonzero"/><path d=" M -0.3545197805528887 -1.317238282261773 C -0.36509548068455966 -1.317238282261773 -0.37366877956999156 -1.325811581147205 -0.37366877956999156 -1.336387281278876 L -0.37366877956999156 -1.6498468206893417 C -0.37366748458274524 -1.6593343596402375 -0.36671915450547377 -1.6673905125668682 -0.35733468340839525 -1.6687851807172578 L -0.04540706391930627 -1.7151544818371711 C -0.03989890259803719 -1.7159526549507562 -0.034314397819056985 -1.7143331485648519 -0.030087864705624634 -1.710711914065203 C -0.02586821437372233 -1.707073698149959 -0.023442370420860392 -1.7017780877917674 -0.023443162046689725 -1.6962065473097478 L -0.023443162046689725 -1.3897651160390503 C -0.023443162046689725 -1.3791894159073799 -0.032016460932121626 -1.3706161170219475 -0.0425921610637916 -1.3706161170219475 C -0.053167861195462685 -1.3706161170219475 -0.061741160080894586 -1.3791894159073799 -0.061741160080894586 -1.3897651160390503 L -0.061741160080894586 -1.674041580947451 L -0.3353612070362775 -1.633378681534633 L -0.3353612070362775 -1.33642557927691 C -0.3353510325306792 -1.3313386571352779 -0.3373653329391473 -1.3264567359280655 -0.340959641882137 -1.322857038216045 C -0.3445539508251284 -1.3192573405040247 -0.34943284887706505 -1.3172357286204575 -0.3545197805528887 -1.3172382822617728 Z" fill="#343432" transform="matrix(1,0,0,1,0,0)" fill-rule="nonzero"/><path d=" M -0.0959795703234736 -1.317238282261773 C -0.13601535010352106 -1.3172857649524221 -0.16845892141010133 -1.3497293362590015 -0.16850640410075202 -1.38976511603905 C -0.16845365884621644 -1.4297987121339022 -0.13601316641832484 -1.4622392045617927 -0.09597957032347271 -1.4622919498163272 C -0.05594379054342613 -1.462244467125678 -0.023500219236846753 -1.4298008958190986 -0.023452736546196062 -1.38976511603905 C -0.02349495402086177 -1.3497271518792435 -0.0559416061636695 -1.3172804997364367 -0.09597957032347537 -1.317238282261773 Z M -0.0959795703234736 -1.4239939517821216 C -0.11487488492624509 -1.4239728455746066 -0.13018729985903033 -1.4086604306418216 -0.13020840606654605 -1.3897651160390503 C -0.130187299859033 -1.3708698014362828 -0.11487488492624864 -1.3555573865034962 -0.09597957032347715 -1.3555362802959792 C -0.07708207058760452 -1.3555521184099797 -0.061766572694403 -1.3708676163031812 -0.061750734580402034 -1.3897651160390503 C -0.06177184078791775 -1.4086604306418213 -0.07708425572070299 -1.4239728455746063 -0.0959795703234736 -1.4239939517821214 Z" fill="#343432" transform="matrix(1,0,0,1,0,0)" fill-rule="nonzero"/><path d=" M -0.40789761531306234 -1.2638604475015986 C -0.44793184034824796 -1.2639079405203146 -0.4803726669675874 -1.2963530503224658 -0.48041487459083165 -1.336387281278876 C -0.4803726669675883 -1.3764215122352836 -0.4479318403482506 -1.4088666220374357 -0.4078976153130659 -1.408914115056153 C -0.3678596511532565 -1.408871897581489 -0.3354129990104495 -1.3764252454386816 -0.3353707815357848 -1.336387281278876 C -0.3354129990104495 -1.2963493171190692 -0.36785965115325736 -1.2639026649762624 -0.40789761531306323 -1.2638604475015986 Z M -0.40789761531306234 -1.3706161170219473 C -0.4267891907344953 -1.3705897365203583 -0.4420957811519015 -1.355278863341224 -0.4421168765566257 -1.336387281278876 C -0.4420957811519033 -1.317495699216531 -0.42678919073449884 -1.3021848260373954 -0.4078976153130668 -1.3021584455358046 C -0.38900230071029074 -1.30217955174332 -0.3736898857775065 -1.3174919666761047 -0.37366877956999067 -1.336387281278876 C -0.37368988577750384 -1.355282595881644 -0.3890023007102881 -1.3705950108144302 -0.4078976153130597 -1.3706161170219473 Z" fill="#343432" transform="matrix(1,0,0,1,0,0)" fill-rule="nonzero"/><path d=" M -0.35454850405141425 -1.546164565511238 C -0.36405388750733425 -1.546180942388044 -0.3721084573365797 -1.5531675479990397 -0.3734677150803115 -1.5625752576688952 C -0.37419555861733633 -1.5676018831005587 -0.37289660439870964 -1.5727117545499505 -0.36985665099059395 -1.576780587640791 C -0.3668166975824775 -1.5808494207316315 -0.3622848042396781 -1.5835438614938102 -0.3572580874123338 -1.5842710735552727 L -0.04534004242274592 -1.6294052642385841 C -0.0348824104660721 -1.6308823445352982 -0.025192788592567794 -1.623642922720716 -0.023644226536368773 -1.6131956365706064 C -0.022916382999343954 -1.6081690111389428 -0.024215337217969868 -1.6030591396895508 -0.02725529062608545 -1.5989903065987106 C -0.030295244034203028 -1.59492147350787 -0.03482713737700127 -1.592227032745691 -0.03985385420434562 -1.591499820684229 L -0.3517814736934426 -1.5463656300009174 C -0.352697767946615 -1.546232027101108 -0.35362252088580015 -1.546164830520752 -0.35454850405141425 -1.5461645655112377 Z" fill="#343432" transform="matrix(1,0,0,1,0,0)" fill-rule="nonzero"/><path d=" M 0.05402411347700187 -1.1987442763439402 C 0.04344841334533078 -1.1987442763439402 0.03487511445989888 -1.2073175752293726 0.03487511445989888 -1.2178932753610432 L 0.03487511445989888 -1.5313815382700344 C 0.03487640944714521 -1.5408690772209304 0.041824739524416676 -1.5489252301475611 0.051209210621495194 -1.5503198982979505 L 0.36312725561107606 -1.5966796249183555 C 0.36863674239914124 -1.5974971676095875 0.374229164733185 -1.5958753651327149 0.3784464548247586 -1.5922370571463877 C 0.38266357340194257 -1.5886010246540667 0.38508916427671647 -1.583309461852327 0.3850911574836935 -1.5777412648904408 L 0.3850911574836935 -1.2712902591202346 C 0.3850911574836935 -1.2607145589885638 0.3765178585982607 -1.2521412601031316 0.3659421584665905 -1.2521412601031316 C 0.35536645833491964 -1.2521412601031316 0.3467931594494875 -1.2607145589885638 0.3467931594494875 -1.2712902591202346 L 0.3467931594494875 -1.5555284260306013 L 0.07317311249410485 -1.5148655266177833 L 0.07317311249410485 -1.2179219988595689 C 0.07318073791043678 -1.212838393692356 0.07116662670227925 -1.2079603884739956 0.0675746659517229 -1.2043630397823135 C 0.06398270520116678 -1.200765691090631 0.05910772436327627 -1.1987442706248748 0.05402411347700187 -1.1987442763439402 Z" fill="#343432" transform="matrix(1,0,0,1,0,0)" fill-rule="nonzero"/><path d=" M 0.31256432370641507 -1.1987442763439402 C 0.2725316473937365 -1.198786493807365 0.24008928189207213 -1.2312288593090288 0.24004706442864854 -1.2712615356217092 C 0.240089272051891 -1.3112957665781169 0.2725300986712287 -1.343740876380269 0.3125643237064133 -1.3437883693989863 C 0.35260228786622183 -1.3437461519243221 0.3850489400090278 -1.3112994997815148 0.3850911574836935 -1.2712615356217092 C 0.3850436644649844 -1.2312273105865363 0.35259855466283874 -1.1987864839671916 0.3125643237064275 -1.1987442763439402 Z M 0.31256432370641507 -1.3054903713647805 C 0.2936727482849839 -1.3054639908631915 0.2783661578675778 -1.290153117684057 0.2783450624628536 -1.2712615356217092 C 0.2783661686577572 -1.2523715088656993 0.29367429695041447 -1.237063380573045 0.3125643237064213 -1.2370422743781462 C 0.33145808942828414 -1.2370581041990647 0.3467720439205981 -1.2523677750677458 0.3467931594494875 -1.2712615356217092 C 0.34677205324197447 -1.2901568502244771 0.33145963830919034 -1.3054692651572635 0.3125643237064186 -1.3054903713647805 Z" fill="#343432" transform="matrix(1,0,0,1,0,0)" fill-rule="nonzero"/><path d=" M 0.0006558532163354336 -1.1453568670842575 C -0.03938365966598267 -1.14540436011583 -0.0718287729251641 -1.17785375655828 -0.0718709805609421 -1.217893275361043 C -0.07182348754222945 -1.2579275003962223 -0.039378377740080905 -1.2903683270155637 0.0006558532163301045 -1.2904105346388117 C 0.04068852952901425 -1.290368317175387 0.07313089503067838 -1.2579259516737233 0.07317311249410219 -1.217893275361043 C 0.07313618090727592 -1.1778553054836638 0.040693811947284386 -1.145404369750772 0.0006558532163380981 -1.1453568670842575 Z M 0.0006558532163354336 -1.2521125366046062 C -0.018237912505533638 -1.2520967067836877 -0.033551866997847624 -1.2367870359150068 -0.033572982526737016 -1.2178932753610434 C -0.03355715269640824 -1.198994221792386 -0.018243195185872807 -1.183675980657367 0.0006558532163283282 -1.1836548651184633 C 0.01955116222132869 -1.1836812559915235 0.03485929439238067 -1.1989979545487923 0.03487511445989622 -1.2178932753610432 C 0.0348540082649933 -1.2367833021170533 0.019545879972336255 -1.2520914304097075 0.0006558532163301045 -1.2521125366046062 Z" fill="#343432" transform="matrix(1,0,0,1,0,0)" fill-rule="nonzero"/><path d=" M 0.053995389978475306 -1.4276705595934052 C 0.044490006522554415 -1.4276869364702112 0.036435436693308176 -1.434673542081207 0.035076178949577264 -1.4440812517510624 C 0.03434833541255333 -1.4491078771827264 0.03564728963117991 -1.4542177486321182 0.038687243039295716 -1.4582865817229584 C 0.041727196447412185 -1.462355414813799 0.04625908979021154 -1.465049855575978 0.051285806617555885 -1.4657770676374402 L 0.36320385160714364 -1.5109112583207513 C 0.37366429043823945 -1.5123993117476922 0.3833608324476978 -1.5051547196814905 0.3848996674935199 -1.4947016306527738 C 0.3856275110305456 -1.4896750052211098 0.3843285568119197 -1.4845651337717178 0.3812886034038041 -1.4804963006808778 C 0.37824864999568675 -1.4764274675900373 0.3737167566528883 -1.4737330268278581 0.36869003982554394 -1.473005814766396 L 0.05676242033644696 -1.4278716240830849 C 0.05584612608327455 -1.4277380211832758 0.0549213731440894 -1.4276708246029195 0.053995389978475306 -1.4276705595934052 Z" fill="#343432" transform="matrix(1,0,0,1,0,0)" fill-rule="nonzero"/><path d=" M -0.14935740508364903 -1.1931527686309462 L -0.607698271057515 -1.1931527686309462 C -0.618273971189185 -1.1931527686309462 -0.626847270074617 -1.2017260675163783 -0.626847270074617 -1.2123017676480492 C -0.626847270074617 -1.2228774677797198 -0.618273971189185 -1.231450766665152 -0.607698271057515 -1.231450766665152 L -0.14935740508364903 -1.231450766665152 C -0.13878170495197817 -1.231450766665152 -0.13020840606654605 -1.22287746777972 -0.13020840606654605 -1.2123017676480492 C -0.13020840606654605 -1.2017260675163783 -0.13878170495197817 -1.1931527686309462 -0.14935740508364903 -1.1931527686309462 Z" fill="#343432" transform="matrix(1,0,0,1,0,0)" fill-rule="nonzero"/><path d=" M -0.5356597367551734 -1.311369114063031 L -0.607698271057515 -1.311369114063031 C -0.618273971189185 -1.311369114063031 -0.626847270074617 -1.3199424129484634 -0.626847270074617 -1.3305181130801338 C -0.626847270074617 -1.3410938132118047 -0.618273971189185 -1.3496671120972368 -0.607698271057515 -1.3496671120972368 L -0.5356597367551734 -1.3496671120972368 C -0.5250840366235024 -1.3496671120972368 -0.5165107377380704 -1.3410938132118047 -0.5165107377380704 -1.3305181130801338 C -0.5165107377380704 -1.3199424129484634 -0.5250840366235024 -1.311369114063031 -0.5356597367551734 -1.311369114063031 Z" fill="#343432" transform="matrix(1,0,0,1,0,0)" fill-rule="nonzero"/><path d=" M -0.44617646434825176 -1.4295854594951154 L -0.607698271057515 -1.4295854594951154 C -0.618273971189185 -1.4295854594951154 -0.626847270074617 -1.4381587583805475 -0.626847270074617 -1.4487344585122184 C -0.626847270074617 -1.459310158643889 -0.618273971189185 -1.4678834575293214 -0.607698271057515 -1.4678834575293214 L -0.44617646434825176 -1.4678834575293214 C -0.4356007642165808 -1.4678834575293214 -0.42702746533114877 -1.459310158643889 -0.42702746533114877 -1.4487344585122184 C -0.42702746533114877 -1.4381587583805475 -0.4356007642165808 -1.4295854594951154 -0.44617646434825176 -1.4295854594951154 Z" fill="#343432" transform="matrix(1,0,0,1,0,0)" fill-rule="nonzero"/><path d=" M -0.44617646434825176 -1.5478018049272002 L -0.607698271057515 -1.5478018049272002 C -0.618273971189185 -1.5478018049272002 -0.626847270074617 -1.5563751038126323 -0.626847270074617 -1.5669508039443032 C -0.626847270074617 -1.5775265040759738 -0.618273971189185 -1.586099802961406 -0.607698271057515 -1.586099802961406 L -0.44617646434825176 -1.586099802961406 C -0.4356007642165808 -1.586099802961406 -0.42702746533114877 -1.5775265040759738 -0.42702746533114877 -1.5669508039443032 C -0.42702746533114877 -1.5563751038126323 -0.4356007642165808 -1.5478018049272002 -0.44617646434825176 -1.5478018049272002 Z" fill="#343432" transform="matrix(1,0,0,1,0,0)" fill-rule="nonzero"/><path d=" M -0.2133533597988062 -1.4295854594951154 L -0.2725524902601798 -1.4295854594951154 C -0.2831281903918508 -1.4295854594951154 -0.2917014892772828 -1.4381587583805475 -0.2917014892772828 -1.4487344585122184 C -0.2917014892772828 -1.459310158643889 -0.2831281903918508 -1.4678834575293214 -0.2725524902601798 -1.4678834575293214 L -0.2133533597988062 -1.4678834575293214 C -0.20277765966713512 -1.4678834575293214 -0.19420436078170322 -1.459310158643889 -0.19420436078170322 -1.4487344585122184 C -0.19420436078170322 -1.4381587583805475 -0.20277765966713512 -1.4295854594951154 -0.2133533597988062 -1.4295854594951154 Z" fill="#343432" transform="matrix(1,0,0,1,0,0)" fill-rule="nonzero"/><path d=" M -0.44617646434825176 -1.666018150359285 L -0.607698271057515 -1.666018150359285 C -0.618273971189185 -1.666018150359285 -0.626847270074617 -1.6745914492447171 -0.626847270074617 -1.6851671493763878 C -0.626847270074617 -1.6957428495080584 -0.618273971189185 -1.7043161483934908 -0.607698271057515 -1.7043161483934908 L -0.44617646434825176 -1.7043161483934908 C -0.4356007642165808 -1.7043161483934908 -0.42702746533114877 -1.6957428495080584 -0.42702746533114877 -1.6851671493763878 C -0.42702746533114877 -1.6745914492447171 -0.4356007642165808 -1.666018150359285 -0.44617646434825176 -1.666018150359285 Z" fill="#343432" transform="matrix(1,0,0,1,0,0)" fill-rule="nonzero"/><path d=" M 0.6076982710575143 -1.5478018049272002 L 0.4389189937207685 -1.5478018049272002 C 0.4283432935890985 -1.5478018049272002 0.4197699947036664 -1.5563751038126323 0.4197699947036664 -1.5669508039443032 C 0.4197699947036664 -1.5775265040759738 0.4283432935890985 -1.586099802961406 0.4389189937207685 -1.586099802961406 L 0.6076982710575143 -1.586099802961406 C 0.6182739711891851 -1.586099802961406 0.626847270074617 -1.5775265040759738 0.626847270074617 -1.5669508039443032 C 0.626847270074617 -1.5563751038126323 0.6182739711891851 -1.5478018049272002 0.6076982710575143 -1.5478018049272002 Z" fill="#343432" transform="matrix(1,0,0,1,0,0)" fill-rule="nonzero"/><path d=" M 0.6076982710575143 -1.666018150359285 L 0.03905917074513554 -1.666018150359285 C 0.028483470613465567 -1.666018150359285 0.019910171728032555 -1.6745914492447171 0.019910171728032555 -1.6851671493763878 C 0.019910171728032555 -1.6957428495080584 0.028483470613465567 -1.7043161483934908 0.03905917074513554 -1.7043161483934908 L 0.6076982710575143 -1.7043161483934908 C 0.6182739711891851 -1.7043161483934908 0.626847270074617 -1.6957428495080584 0.626847270074617 -1.6851671493763878 C 0.626847270074617 -1.6745914492447171 0.6182739711891851 -1.666018150359285 0.6076982710575143 -1.666018150359285 Z" fill="#343432" transform="matrix(1,0,0,1,0,0)" fill-rule="nonzero"/><path d=" M -0.21137143840053652 -1.311369114063031 L -0.2834195472023854 -1.311369114063031 C -0.29399524733405635 -1.311369114063031 -0.30256854621948825 -1.3199424129484634 -0.30256854621948825 -1.3305181130801338 C -0.30256854621948825 -1.3410938132118047 -0.29399524733405635 -1.3496671120972368 -0.2834195472023854 -1.3496671120972368 L -0.21137143840053652 -1.3496671120972368 C -0.20079573826886543 -1.3496671120972368 -0.19222243938343353 -1.3410938132118047 -0.19222243938343353 -1.3305181130801338 C -0.19222243938343353 -1.3199424129484634 -0.20079573826886543 -1.311369114063031 -0.21137143840053652 -1.311369114063031 Z" fill="#343432" transform="matrix(1,0,0,1,0,0)" fill-rule="nonzero"/><path d=" M 0.6076982710575143 -1.4295854594951154 L 0.4389189937207685 -1.4295854594951154 C 0.4283432935890985 -1.4295854594951154 0.4197699947036664 -1.4381587583805475 0.4197699947036664 -1.4487344585122184 C 0.4197699947036664 -1.459310158643889 0.4283432935890985 -1.4678834575293214 0.4389189937207685 -1.4678834575293214 L 0.6076982710575143 -1.4678834575293214 C 0.6182739711891851 -1.4678834575293214 0.626847270074617 -1.459310158643889 0.626847270074617 -1.4487344585122184 C 0.626847270074617 -1.4381587583805475 0.6182739711891851 -1.4295854594951154 0.6076982710575143 -1.4295854594951154 Z" fill="#343432" transform="matrix(1,0,0,1,0,0)" fill-rule="nonzero"/><path d=" M 0.18853625707264032 -1.311369114063031 L 0.11649772277029968 -1.311369114063031 C 0.1059220226386286 -1.311369114063031 0.0973487237531967 -1.3199424129484634 0.0973487237531967 -1.3305181130801338 C 0.0973487237531967 -1.3410938132118047 0.1059220226386286 -1.3496671120972368 0.11649772277029968 -1.3496671120972368 L 0.18853625707264032 -1.3496671120972368 C 0.19911195720431119 -1.3496671120972368 0.2076852560897433 -1.3410938132118047 0.2076852560897433 -1.3305181130801338 C 0.2076852560897433 -1.3199424129484634 0.19911195720431119 -1.311369114063031 0.18853625707264032 -1.311369114063031 Z" fill="#343432" transform="matrix(1,0,0,1,0,0)" fill-rule="nonzero"/><path d=" M 0.6076982710575143 -1.311369114063031 L 0.4324849300510236 -1.311369114063031 C 0.42190922991935254 -1.311369114063031 0.41333593103392063 -1.3199424129484634 0.41333593103392063 -1.3305181130801338 C 0.41333593103392063 -1.3410938132118047 0.42190922991935254 -1.3496671120972368 0.4324849300510236 -1.3496671120972368 L 0.6076982710575143 -1.3496671120972368 C 0.6182739711891851 -1.3496671120972368 0.626847270074617 -1.3410938132118047 0.626847270074617 -1.3305181130801338 C 0.626847270074617 -1.3199424129484634 0.6182739711891851 -1.311369114063031 0.6076982710575143 -1.311369114063031 Z" fill="#343432" transform="matrix(1,0,0,1,0,0)" fill-rule="nonzero"/><path d=" M 0.18853625707264032 -1.1987442763439402 L 0.11649772277029968 -1.1987442763439402 C 0.1059220226386286 -1.1987442763439402 0.0973487237531967 -1.2073175752293726 0.0973487237531967 -1.2178932753610432 C 0.0973487237531967 -1.228468975492714 0.1059220226386286 -1.2370422743781462 0.11649772277029968 -1.2370422743781462 L 0.18853625707264032 -1.2370422743781462 C 0.19911195720431119 -1.2370422743781462 0.2076852560897433 -1.2284689754927143 0.2076852560897433 -1.2178932753610432 C 0.2076852560897433 -1.2073175752293726 0.19911195720431119 -1.1987442763439402 0.18853625707264032 -1.1987442763439402 Z" fill="#343432" transform="matrix(1,0,0,1,0,0)" fill-rule="nonzero"/><path d=" M 0.6076982710575143 -1.1987442763439402 L 0.4324849300510236 -1.1987442763439402 C 0.42190922991935254 -1.1987442763439402 0.41333593103392063 -1.2073175752293726 0.41333593103392063 -1.2178932753610432 C 0.41333593103392063 -1.228468975492714 0.42190922991935254 -1.2370422743781462 0.4324849300510236 -1.2370422743781462 L 0.6076982710575143 -1.2370422743781462 C 0.6182739711891851 -1.2370422743781462 0.626847270074617 -1.2284689754927143 0.626847270074617 -1.2178932753610432 C 0.626847270074617 -1.2073175752293726 0.6182739711891851 -1.1987442763439402 0.6076982710575143 -1.1987442763439402 Z" fill="#343432" transform="matrix(1,0,0,1,0,0)" fill-rule="nonzero"/><path d=" M 0.27229397877344774 -1.7615333574565941 C 0.26171827864177777 -1.7615333574565941 0.25314497975634476 -1.7701066563420262 0.25314497975634476 -1.780682356473697 L 0.25314497975634476 -1.856579414077984 C 0.25314497975634476 -1.867155114209655 0.26171827864177777 -1.875728413095087 0.27229397877344774 -1.875728413095087 C 0.2828696789051188 -1.875728413095087 0.29144297779055073 -1.867155114209655 0.29144297779055073 -1.856579414077984 L 0.29144297779055073 -1.780682356473697 C 0.29144297779055073 -1.7701066563420262 0.2828696789051188 -1.7615333574565941 0.27229397877344774 -1.7615333574565941 Z" fill="#343432" transform="matrix(1,0,0,1,0,0)" fill-rule="nonzero"/><path d=" M 0.31247815321083827 -1.799467524509475 L 0.2321002298365491 -1.799467524509475 C 0.2215245297048789 -1.799467524509475 0.2129512308194461 -1.808040823394907 0.2129512308194461 -1.8186165235265777 C 0.2129512308194461 -1.8291922236582483 0.2215245297048789 -1.8377655225436804 0.2321002298365491 -1.8377655225436804 L 0.31247815321083827 -1.8377655225436804 C 0.32305385334250936 -1.8377655225436804 0.33162715222794126 -1.8291922236582483 0.33162715222794126 -1.8186165235265777 C 0.33162715222794126 -1.808040823394907 0.32305385334250936 -1.799467524509475 0.31247815321083827 -1.799467524509475 Z" fill="#343432" transform="matrix(1,0,0,1,0,0)" fill-rule="nonzero"/><path d=" M -0.3011802437907488 -0.9687265001505005 C -0.3117559439224189 -0.9687265001505005 -0.3203292428078518 -0.9772997990359324 -0.3203292428078518 -0.9878754991676035 L -0.3203292428078518 -1.063762982272382 C -0.3203292428078518 -1.074338682404053 -0.3117559439224189 -1.082911981289485 -0.3011802437907488 -1.082911981289485 C -0.29060454365907784 -1.082911981289485 -0.28203124477364583 -1.074338682404053 -0.28203124477364583 -1.063762982272382 L -0.28203124477364583 -0.9878754991676035 C -0.28203124477364583 -0.9772997990359324 -0.29060454365907784 -0.9687265001505005 -0.3011802437907488 -0.9687265001505005 Z" fill="#343432" transform="matrix(1,0,0,1,0,0)" fill-rule="nonzero"/><path d=" M -0.26098649485385006 -1.0066989652014156 L -0.34141229072568136 -1.0066989652014156 C -0.35198799085735233 -1.0066989652014156 -0.36056128974278434 -1.0152722640868475 -0.36056128974278434 -1.0258479642185183 C -0.36056128974278434 -1.0364236643501892 -0.35198799085735233 -1.044996963235621 -0.34141229072568136 -1.044996963235621 L -0.26098649485385006 -1.044996963235621 C -0.250410794722179 -1.044996963235621 -0.24183749583674707 -1.0364236643501892 -0.24183749583674707 -1.0258479642185183 C -0.24183749583674707 -1.0152722640868475 -0.250410794722179 -1.0066989652014156 -0.26098649485385006 -1.0066989652014156 Z" fill="#343432" transform="matrix(1,0,0,1,0,0)" fill-rule="nonzero"/><path d=" M 0.4325136535495484 -1.0066989652014156 C 0.4219379534178773 -1.0066989652014156 0.4133646545324454 -1.0152722640868475 0.4133646545324454 -1.0258479642185183 L 0.4133646545324454 -1.1017450218228058 C 0.4133646545324454 -1.1123207219544764 0.4219379534178773 -1.1208940208399085 0.4325136535495484 -1.1208940208399085 C 0.44308935368121927 -1.1208940208399085 0.45166265256665117 -1.1123207219544764 0.45166265256665117 -1.1017450218228058 L 0.45166265256665117 -1.0258479642185185 C 0.45166265256665117 -1.0207693339152617 0.4496451745340486 -1.015898711087163 0.44605404060747667 -1.0123075771605903 C 0.4424629066809036 -1.008716443234018 0.43759228385280435 -1.0066989652014158 0.4325136535495484 -1.0066989652014158 Z" fill="#343432" transform="matrix(1,0,0,1,0,0)" fill-rule="nonzero"/><path d=" M 0.47269782798693893 -1.0446139832552792 L 0.39227203211510653 -1.0446139832552792 C 0.38169633198343567 -1.0446139832552792 0.37312303309800354 -1.0531872821407113 0.37312303309800354 -1.063762982272382 C 0.37312303309800354 -1.074338682404053 0.38169633198343567 -1.082911981289485 0.39227203211510653 -1.082911981289485 L 0.47269782798693893 -1.082911981289485 C 0.4832735281186089 -1.082911981289485 0.4918468270040417 -1.074338682404053 0.4918468270040417 -1.063762982272382 C 0.4918468270040417 -1.0531872821407113 0.4832735281186089 -1.0446139832552792 0.47269782798693893 -1.0446139832552792 Z" fill="#343432" transform="matrix(1,0,0,1,0,0)" fill-rule="nonzero"/><path d=" M -0.407495486333704 -1.799467524509475 C -0.418071186465375 -1.799467524509475 -0.4266444853508069 -1.808040823394907 -0.4266444853508069 -1.8186165235265777 L -0.4266444853508069 -1.8945040066313563 C -0.4266444853508069 -1.905079706763027 -0.418071186465375 -1.913653005648459 -0.407495486333704 -1.913653005648459 C -0.39691978620203394 -1.913653005648459 -0.38834648731660104 -1.905079706763027 -0.38834648731660104 -1.8945040066313563 L -0.38834648731660104 -1.8186165235265777 C -0.38834648731660104 -1.808040823394907 -0.39691978620203394 -1.799467524509475 -0.407495486333704 -1.799467524509475 Z" fill="#343432" transform="matrix(1,0,0,1,0,0)" fill-rule="nonzero"/><path d=" M -0.3673113118963135 -1.8374304150608813 L -0.4476892352706028 -1.8374304150608813 C -0.45826493540227375 -1.8374304150608813 -0.46683823428770577 -1.8460037139463132 -0.46683823428770577 -1.856579414077984 C -0.46683823428770577 -1.867155114209655 -0.45826493540227375 -1.875728413095087 -0.4476892352706028 -1.875728413095087 L -0.3673113118963135 -1.875728413095087 C -0.3567356117646434 -1.875728413095087 -0.3481623128792105 -1.867155114209655 -0.3481623128792105 -1.856579414077984 C -0.3481623128792105 -1.8460037139463132 -0.3567356117646434 -1.8374304150608813 -0.3673113118963135 -1.8374304150608813 Z" fill="#343432" transform="matrix(1,0,0,1,0,0)" fill-rule="nonzero"/></g></g><defs><clipPath id="SvgjsClipPath1019"><path d=" M -1.253694540149234 -2.694889080298468 h 2.507389080298468 v 2.507389080298468 h -2.507389080298468 Z"/></clipPath></defs></svg>